<svg width="155" height="44" viewBox="0 0 155 44" fill="none" xmlns="http://www.w3.org/2000/svg">
<path d="M10.0709 25.0618H16.2877V16.4948H27.6736V25.0618H33.8905V16.4948H43.2729C42.0425 11.7704 39.2852 7.58854 35.4324 4.60381C31.5796 1.61909 26.8488 0 21.9807 0C17.1125 0 12.3818 1.61909 8.529 4.60381C4.6762 7.58854 1.91882 11.7704 0.688506 16.4948H10.0709V25.0618Z" fill="#163841"/>
<path d="M36.475 27.6542H25.0891V19.0872H18.8691V27.6542H7.48642V19.0872H0.183704C-0.203547 22.0741 0.0229217 25.1089 0.849165 28.0046C1.67541 30.9004 3.08393 33.5959 4.98799 35.925C6.89205 38.2541 9.25132 40.1676 11.9205 41.5476C14.5897 42.9276 17.5123 43.7449 20.5083 43.9492C23.5043 44.1535 26.5103 43.7404 29.3411 42.7353C32.1719 41.7303 34.7676 40.1546 36.9684 38.1054C39.1691 36.0561 40.9283 33.5766 42.1376 30.8196C43.3469 28.0626 43.9807 25.0865 44 22.0745C43.9973 21.0752 43.9283 20.0773 43.7936 19.0872H36.4909L36.475 27.6542Z" fill="#163841"/>
<path d="M52 24.2995C52 22.7665 52.287 21.4207 52.8611 20.262C53.4531 19.1034 54.2515 18.2121 55.2561 17.5882C56.2607 16.9643 57.382 16.6524 58.6199 16.6524C59.6783 16.6524 60.6022 16.8663 61.3916 17.2941C62.1989 17.7219 62.8178 18.2834 63.2484 18.9786V16.8663H67.85V31.7861H63.2484V29.6738C62.7999 30.369 62.172 30.9305 61.3647 31.3583C60.5753 31.7861 59.6514 32 58.5929 32C57.373 32 56.2607 31.6881 55.2561 31.0642C54.2515 30.4225 53.4531 29.5223 52.8611 28.3636C52.287 27.1872 52 25.8324 52 24.2995ZM63.2484 24.3262C63.2484 23.1854 62.9254 22.2852 62.2796 21.6257C61.6517 20.9661 60.8803 20.6364 59.9654 20.6364C59.0504 20.6364 58.27 20.9661 57.6242 21.6257C56.9963 22.2674 56.6823 23.1586 56.6823 24.2995C56.6823 25.4403 56.9963 26.3494 57.6242 27.0267C58.27 27.6863 59.0504 28.016 59.9654 28.016C60.8803 28.016 61.6517 27.6863 62.2796 27.0267C62.9254 26.3672 63.2484 25.467 63.2484 24.3262Z" fill="#163841"/>
<path d="M70.2641 24.2995C70.2641 22.7665 70.5511 21.4207 71.1252 20.262C71.7172 19.1034 72.5156 18.2121 73.5202 17.5882C74.5248 16.9643 75.6461 16.6524 76.8839 16.6524C77.8706 16.6524 78.7676 16.8574 79.5749 17.2674C80.4002 17.6774 81.046 18.2299 81.5125 18.9251V12H86.1141V31.7861H81.5125V29.6471C81.0819 30.3601 80.463 30.9305 79.6557 31.3583C78.8663 31.7861 77.9424 32 76.8839 32C75.6461 32 74.5248 31.6881 73.5202 31.0642C72.5156 30.4225 71.7172 29.5223 71.1252 28.3636C70.5511 27.1872 70.2641 25.8324 70.2641 24.2995ZM81.5125 24.3262C81.5125 23.1854 81.1895 22.2852 80.5437 21.6257C79.9158 20.9661 79.1444 20.6364 78.2294 20.6364C77.3145 20.6364 76.5341 20.9661 75.8883 21.6257C75.2604 22.2674 74.9464 23.1586 74.9464 24.2995C74.9464 25.4403 75.2604 26.3494 75.8883 27.0267C76.5341 27.6863 77.3145 28.016 78.2294 28.016C79.1444 28.016 79.9158 27.6863 80.5437 27.0267C81.1895 26.3672 81.5125 25.467 81.5125 24.3262Z" fill="#163841"/>
<path d="M88.5282 24.2995C88.5282 22.7665 88.8152 21.4207 89.3893 20.262C89.9813 19.1034 90.7796 18.2121 91.7843 17.5882C92.7889 16.9643 93.9102 16.6524 95.148 16.6524C96.2065 16.6524 97.1304 16.8663 97.9198 17.2941C98.7271 17.7219 99.346 18.2834 99.7765 18.9786V16.8663H104.378V31.7861H99.7765V29.6738C99.328 30.369 98.7001 30.9305 97.8928 31.3583C97.1035 31.7861 96.1796 32 95.1211 32C93.9012 32 92.7889 31.6881 91.7843 31.0642C90.7796 30.4225 89.9813 29.5223 89.3893 28.3636C88.8152 27.1872 88.5282 25.8324 88.5282 24.2995ZM99.7765 24.3262C99.7765 23.1854 99.4536 22.2852 98.8078 21.6257C98.1799 20.9661 97.4085 20.6364 96.4935 20.6364C95.5786 20.6364 94.7982 20.9661 94.1524 21.6257C93.5245 22.2674 93.2105 23.1586 93.2105 24.2995C93.2105 25.4403 93.5245 26.3494 94.1524 27.0267C94.7982 27.6863 95.5786 28.016 96.4935 28.016C97.4085 28.016 98.1799 27.6863 98.8078 27.0267C99.4536 26.3672 99.7765 25.467 99.7765 24.3262Z" fill="#163841"/>
<path d="M113.816 32C112.506 32 111.34 31.7772 110.317 31.3316C109.295 30.8859 108.488 30.2799 107.896 29.5134C107.304 28.7291 106.972 27.8556 106.9 26.893H111.448C111.502 27.41 111.744 27.8289 112.174 28.1497C112.605 28.4706 113.134 28.631 113.762 28.631C114.336 28.631 114.776 28.5241 115.081 28.3102C115.403 28.0784 115.565 27.7843 115.565 27.4278C115.565 27 115.341 26.6881 114.892 26.492C114.444 26.2781 113.717 26.0463 112.712 25.7968C111.636 25.5472 110.739 25.2888 110.021 25.0214C109.304 24.7362 108.685 24.2995 108.165 23.7112C107.644 23.1052 107.384 22.2941 107.384 21.2781C107.384 20.4225 107.618 19.6471 108.084 18.9519C108.568 18.2389 109.268 17.6774 110.183 17.2674C111.116 16.8574 112.219 16.6524 113.493 16.6524C115.377 16.6524 116.857 17.1159 117.933 18.0428C119.027 18.9697 119.655 20.1996 119.817 21.7326H115.565C115.493 21.2157 115.26 20.8057 114.865 20.5027C114.489 20.1996 113.986 20.0481 113.358 20.0481C112.82 20.0481 112.407 20.1551 112.12 20.369C111.833 20.5651 111.69 20.8414 111.69 21.1979C111.69 21.6257 111.914 21.9465 112.363 22.1604C112.829 22.3743 113.547 22.5882 114.515 22.8021C115.628 23.0873 116.534 23.3725 117.233 23.6578C117.933 23.9251 118.543 24.3708 119.063 24.9947C119.601 25.6007 119.879 26.4207 119.897 27.4545C119.897 28.328 119.646 29.1123 119.144 29.8075C118.66 30.4848 117.951 31.0196 117.018 31.4118C116.103 31.8039 115.036 32 113.816 32Z" fill="#163841"/>
<path d="M131.943 16.7059C133.665 16.7059 135.046 17.2763 136.087 18.4171C137.127 19.5401 137.648 21.0909 137.648 23.0695V31.7861H133.073V23.6845C133.073 22.6863 132.813 21.9109 132.293 21.3583C131.772 20.8057 131.073 20.5294 130.194 20.5294C129.315 20.5294 128.615 20.8057 128.095 21.3583C127.574 21.9109 127.314 22.6863 127.314 23.6845V31.7861H122.713V12H127.314V18.8717C127.781 18.2121 128.418 17.6863 129.225 17.2941C130.032 16.902 130.938 16.7059 131.943 16.7059Z" fill="#163841"/>
<path d="M155 24.0856C155 24.5134 154.973 24.959 154.919 25.4225H144.505C144.577 26.3494 144.873 27.0624 145.393 27.5615C145.931 28.0428 146.586 28.2834 147.358 28.2834C148.506 28.2834 149.304 27.8021 149.753 26.8396H154.65C154.399 27.82 153.942 28.7023 153.278 29.4866C152.632 30.2709 151.816 30.8859 150.829 31.3316C149.842 31.7772 148.739 32 147.519 32C146.048 32 144.738 31.6881 143.59 31.0642C142.442 30.4403 141.545 29.549 140.899 28.3904C140.253 27.2317 139.93 25.877 139.93 24.3262C139.93 22.7754 140.244 21.4207 140.872 20.262C141.518 19.1034 142.415 18.2121 143.563 17.5882C144.711 16.9643 146.03 16.6524 147.519 16.6524C148.972 16.6524 150.264 16.9554 151.394 17.5615C152.524 18.1676 153.403 19.0321 154.031 20.1551C154.677 21.2781 155 22.5882 155 24.0856ZM150.291 22.8824C150.291 22.098 150.022 21.4742 149.483 21.0107C148.945 20.5472 148.272 20.3155 147.465 20.3155C146.694 20.3155 146.039 20.5383 145.501 20.984C144.981 21.4296 144.658 22.0624 144.532 22.8824H150.291Z" fill="#163841"/>
</svg>
