<svg width="156" height="36" viewBox="0 0 156 36" fill="none" xmlns="http://www.w3.org/2000/svg">
<path d="M37.3745 17.9903C37.3759 21.2176 36.4769 24.3858 34.7716 27.1634C33.0663 29.9411 30.6174 32.2259 27.6812 33.7788C24.7451 35.3317 21.4297 36.0956 18.0821 35.9904C14.7345 35.8853 11.4778 34.915 8.65284 33.1811L8.45856 33.0598C7.34167 32.3607 6.30664 31.547 5.3716 30.6332C5.17731 30.446 4.99022 30.2518 4.80673 30.0612C2.77682 27.8913 1.32532 25.2782 0.577455 22.4472C-0.17041 19.6162 -0.192174 16.6524 0.51404 13.8116C1.22025 10.9707 2.63324 8.33801 4.63108 6.14071C6.62892 3.94341 9.15161 2.24747 11.9815 1.19921C14.8114 0.150946 17.8635 -0.218152 20.8745 0.123761C23.8855 0.465674 26.7649 1.50833 29.2643 3.16177C31.7638 4.8152 33.8082 7.02976 35.2211 9.61437C36.634 12.199 37.3731 15.076 37.3745 17.9973V17.9903Z" fill="#0077B6"/>
<path d="M23.1163 19.0546C23.0047 19.4012 22.8824 19.7479 22.7565 20.0946C20.2848 26.5841 14.7117 31.5345 8.4586 33.0598C7.34171 32.3606 6.30669 31.547 5.37164 30.6331C11.4376 30.2414 17.2122 25.7798 19.7631 19.5711C19.9502 19.1239 20.1229 18.6663 20.2668 18.1844L23.1163 19.0546Z" fill="#DEBE06"/>
<path d="M17.5108 20.8226L16.5718 19.3596L22.0945 16.1946L25.3577 21.4812L23.8322 22.3687H23.8035C23.8035 22.334 23.7711 22.2959 23.7495 22.2577L21.5152 18.642C21.5005 18.6187 21.4836 18.5967 21.4649 18.5762L21.3569 18.6316L18.1728 20.4412C17.9569 20.5626 17.7483 20.6908 17.536 20.8191L17.5108 20.8226Z" fill="#DEBE06"/>
<path d="M17.6619 14.5479L23.1451 11.428L26.3831 16.7042L24.854 17.5743L22.5334 13.7853L18.5758 16.0559L17.6619 14.5479Z" fill="#DEBE06"/>
<path d="M60.3517 4.18481H65.1426V29.1331H60.3517V4.18481Z" fill="#0077B6"/>
<path d="M77.6504 29.4308C72.1787 29.4308 68.0396 25.7683 68.0396 20.0843C68.0396 14.4002 72.3163 10.7378 77.7881 10.7378C83.2598 10.7378 87.5401 14.369 87.5401 20.0843C87.5401 25.7995 83.1656 29.4308 77.6504 29.4308ZM77.6504 25.4395C80.1853 25.4395 82.6116 23.674 82.6116 20.0773C82.6116 16.4807 80.2686 14.7152 77.7337 14.7152C75.1989 14.7152 72.9102 16.4461 72.9102 20.0773C72.9102 23.7086 75.0866 25.4395 77.6504 25.4395Z" fill="#0077B6"/>
<path d="M101.489 10.7239C106.345 10.7239 110.144 14.3552 110.144 20.0116C110.144 25.6679 106.342 29.4308 101.489 29.4308C100.283 29.4509 99.0891 29.2012 98.002 28.7018C96.9149 28.2023 95.965 27.4669 95.228 26.5541V35.9733H90.4371V11.0182H95.228V13.6352C95.9515 12.7061 96.8978 11.9567 97.9874 11.45C99.077 10.9434 100.278 10.6944 101.489 10.7239ZM100.222 14.7464C97.6543 14.7464 95.228 16.6434 95.228 20.0773C95.228 23.5113 97.6543 25.4083 100.222 25.4083C102.789 25.4083 105.255 23.4455 105.255 20.0116C105.255 16.5776 102.822 14.7464 100.222 14.7464Z" fill="#0077B6"/>
<path d="M121.696 10.7239C124.741 10.7239 126.827 12.1086 127.957 13.6006V11.0182H132.777V29.1365H127.957V26.4884C126.827 28.0565 124.672 29.4308 121.663 29.4308C116.872 29.4308 113.041 25.6714 113.041 20.0116C113.041 14.3517 116.872 10.7239 121.696 10.7239ZM122.927 14.7464C120.363 14.7464 117.933 16.5776 117.933 20.0116C117.933 23.4455 120.363 25.4083 122.927 25.4083C125.563 25.4083 127.957 23.5113 127.957 20.0773C127.957 16.6434 125.563 14.7464 122.927 14.7464Z" fill="#0077B6"/>
<path d="M150.905 11.0181H156L145.02 35.9906H139.951L143.279 28.6796L135.674 11.0251H141.048L145.94 23.6809L150.905 11.0181Z" fill="#0077B6"/>
<path d="M48.1698 15.0441H44.965V11.752H48.1698V10.4539C48.1698 6.27913 50.5345 4.24713 55.3218 4.18828C55.539 4.18828 57.0238 4.18828 57.2519 4.18828V7.99265C56.9948 7.99265 55.4992 7.99265 55.2783 7.99265C53.5474 8.0965 52.939 8.85115 52.939 10.6166V11.7555H57.4547V15.0475H52.939V29.14H48.1698V15.0441Z" fill="#0077B6"/>
</svg>
